**ABCDEFGHIJKLMNOPQRSTUVWXYZabcdefghijklmnopqrstuvwxyz**************************
**PARASOLID !"#$%&'()*+,-./:;<=>?@[\]^_`{|}~0123456789**************************
**PART1;
MC=unknown;
MC_MODEL=unknown;
MC_ID=unknown;
OS=unknown;
OS_RELEASE=unknown;
FRU=Parasolid 37.1.212;
APPL=Onshape;
SITE=unknown;
USER=unknown;
FORMAT=text;
GUISE=transmit;
KEY=BTGapi::writeModels_.xmt;
FILE=BTGapi::writeModels_.xmt;
DATE=2025-10-28T19:17:20 (UTC);
**PART2;
SCH=SCH_3701212_37102;
USFLD_SIZE=0;
**PART3;
**END_OF_HEADER*****************************************************************
T51 : TRANSMIT FILE created by modeller version 370121223 SCH_3701212_37102_1300
6239 0 12 36 CCCI7 lattice222 0 CCCI4 mesh1006 0 I8 polyline1008 0 CCCCCCCDI5 ow
ner1040 0 CCCI16 boundary_lattice222 0 CCCI13 boundary_mesh1006 0 I17 boundary_p
olyline1008 0 CCCA16 index_map_offset0 0 1 dA9 index_map82 0 A17 node_id_index_m
ap82 0 A20 schema_embedding_map82 0 A5 child12 0 A14 lowest_node_id0 0 1 dA16 me
sh_offset_data206 0 Z1 364 2 3 0 0 0 0 0 0 0 1e3 1e-8 0 4 0 1 0 1 2 5 0 6 7 8 0
 0 9 10 11 0 0 0 0 0 0 0 81 255 1 2 358 12 1 13 0 0 0 14 70 11 CI9 list_type0 0
 1 uI10 notransmit0 0 1 lCCCDCCDI12 finger_index0 0 1 dI12 finger_block1012 0 CZ
3 0 4 T1 0 0 8 20 1 15 15 13 255 5 36 0 1 0 16 0 0 17 0 50 255 6 123 0 16 18 0 0
 +.02199997187500005 .00999997914733891 0 -1 0 0 0 0 1 30 255 7 122 0 1 19 0 20
 +.02199997187500005 .00999997914733891 .001005713 0 0 -1 29 255 8 108 0 21 22 0
 .02199997187500005 .00999997914733891 0 19 9 CCCCCCI5 frame230 0 CA5 owner12 0
 Z9 1 0 1 17 0 23 0 V0 16 255 10 32 24 ?25 0 27 19 0 0 1 18 255 11 21 30 29 0 26
 28 5e-7 1 81 1 30 337 34 11 35 0 32 33 31 17 255 29 0 38 40 36 11 39 27 0 37 +1
8 26 19 32 41 11 45 43 5e-7 1 29 28 113 0 11 42 22 0 .00999997914733891 0 29 42
 102 0 44 43 28 0 .00999997914733891 .002011426 29 22 99 0 46 28 8 .021999971875
00005 .00999997914733891 .002011426 18 46 6 50 48 47 0 22 5e-7 1 81 1 50 330 34
 46 49 0 51 55 52 17 48 0 53 54 57 46 25 10 0 60 -18 47 7 55 59 44 46 56 5e-7 1
 81 1 55 331 34 47 58 0 50 61 62 17 59 0 64 63 65 47 66 70 0 68 -18 44 9 61 39 6
7 47 42 5e-7 1 29 56 100 0 47 0 69 .02199997187500005 0 .002011426 29 69 104 0 6
7 56 75 0 0 .002011426 18 67 11 71 73 21 44 69 5e-7 1 29 75 109 0 45 69 43 .0219
9997187500005 0 0 18 45 17 72 66 26 21 75 5e-7 1 29 43 111 0 26 75 42 0 0 0 81 1
 72 335 34 45 74 0 76 32 80 17 66 0 53 57 54 45 59 70 0 65 +18 21 16 76 25 45 67
 8 5e-7 1 81 1 76 334 34 21 77 0 71 72 78 17 25 0 79 37 60 21 48 10 0 81 +15 255
 79 31 0 60 85 0 17 37 0 79 39 25 11 81 83 0 82 -17 60 0 79 25 39 46 84 89 0 90
 +17 81 0 87 88 82 21 37 83 0 57 +15 87 14 0 88 86 0 17 88 0 87 93 81 45 57 95 0
 0 +17 82 0 87 81 93 11 40 91 0 0 +16 83 22 94 ?81 92 91 96 0 0 1 17 57 0 53 48
 66 21 88 95 0 0 -15 53 34 0 54 16 0 16 95 15 100 ?88 98 97 99 0 0 1 81 1 100 34
2 34 95 101 0 105 103 102 16 98 18 103 ?93 91 95 104 0 0 1 16 97 12 105 ?63 95 1
06 110 0 0 1 133 255 99 185 0 95 107 108 0 +108 .02199997187500005 .009999979147
33891 0 .02199997187500005 0 0 0 .00999997914733891 30 107 118 0 1 109 99 112 +.
02199997187500005 0 .001005713 0 0 -1 30 108 110 0 1 99 19 115 +.021999971875000
05 .00999997914733891 0 0 -1 0 133 19 187 0 10 108 7 0 +7 .02199997187500005 .00
999997914733891 .002011426 .02199997187500005 .00999997914733891 0 -.001005713 .
001005713 141 255 115 99 115 115 108 133 109 183 0 70 114 107 0 +107 .0219999718
7500005 0 .002011426 .02199997187500005 0 0 -.001005713 .001005713 141 112 109 1
12 112 107 16 70 26 111 ?66 27 92 109 0 0 1 30 114 101 0 1 113 109 116 +.0219999
7187500005 .00499998957366943 .002011426 0 -1 0 133 113 181 0 117 119 114 0 +114
 .02199997187500005 .00999997914733891 .002011426 .02199997187500005 0 .00201142
6 -.00499998957366948 .00499998957366943 141 116 113 116 116 114 16 117 5 33 ?54
 89 0 113 0 0 1 30 119 120 0 1 118 113 120 +0 .00999997914733891 .001005713 0 0
 -1 133 118 177 0 27 121 119 0 +119 0 .00999997914733891 .002011426 0 .009999979
14733891 0 -.001005713 .001005713 141 120 118 120 120 119 16 27 29 125 ?29 10 70
 118 0 0 1 30 121 115 0 1 96 118 123 +0 .00999997914733891 0 1 0 0 133 96 175 0
 83 122 121 0 +121 0 .00999997914733891 0 .02199997187500005 .00999997914733891
 0 0 .02199997187499995 141 123 96 123 123 121 30 122 103 0 1 124 96 130 +.01099
99859375 .00999997914733891 .002011426 1 0 0 133 124 173 0 89 126 122 0 +122 0 .
00999997914733891 .002011426 .02199997187500005 .00999997914733891 .002011426 -.
01099998593749996 .0109999859375 141 130 124 130 130 122 16 89 8 128 ?60 106 117
 124 0 0 1 30 126 117 0 1 127 124 129 +0 0 .001005713 0 0 -1 133 127 169 0 92 13
1 126 0 +126 0 0 .002011426 0 0 0 -.001005713 .001005713 141 129 127 129 129 126
 16 92 25 135 ?41 70 83 127 0 0 1 30 131 114 0 1 132 127 133 +0 0 0 0 1 0 133 13
2 167 0 91 134 131 0 +131 0 0 0 0 .00999997914733891 0 0 .00999997914733891 141
 133 132 133 133 131 16 91 20 136 ?82 83 98 132 0 0 1 30 134 105 0 1 140 132 138
 +0 .00499998957366943 .002011426 0 1 0 133 140 165 0 106 137 134 0 +134 0 0 .00
2011426 0 .00999997914733891 .002011426 -.00499998957366943 .00499998957366948 1
41 138 140 138 138 134 16 106 10 139 ?36 97 89 140 0 0 1 30 137 112 0 1 104 140
 144 +.02199997187500005 0 0 -1 0 0 133 104 161 0 98 145 137 0 +137 .02199997187
500005 0 0 0 0 0 0 .02199997187499995 141 144 104 144 144 137 30 145 106 0 1 110
 104 142 +.0109999859375 0 .002011426 -1 0 0 133 110 159 0 97 0 145 0 +145 .0219
9997187500005 0 .002011426 0 0 .002011426 -.0109999859375 .01099998593749996 141
 142 110 142 142 145 81 1 139 340 34 106 143 0 128 105 141 17 36 0 38 29 73 44 1
48 106 0 84 +15 38 28 0 36 150 0 17 73 0 38 36 40 67 41 92 0 63 -17 148 0 146 68
 84 67 36 106 0 0 -17 84 0 146 148 90 44 60 89 0 0 -15 146 4 0 90 149 0 17 90 0
 146 84 68 46 54 117 0 0 -17 68 0 146 90 148 47 63 97 0 54 -17 54 0 53 66 48 47
 90 117 0 0 +17 63 0 64 41 59 67 68 97 0 148 +15 64 24 0 63 147 0 17 41 0 64 65
 63 26 73 92 0 40 +17 65 0 64 59 41 45 93 98 0 88 -17 40 0 38 73 29 26 82 91 0 9
3 -17 93 0 87 82 88 26 65 98 0 0 +14 255 147 23 151 ?86 150 64 5 155 -0 0 86 150
 23 81 1 151 362 153 147 152 0 154 156 160 14 86 13 156 ?149 147 87 5 158 -0 0 1
49 147 23 14 150 27 154 ?147 85 38 5 157 -0 0 147 85 23 50 155 116 0 147 158 157
 0 +.02199997187500005 0 0 0 1 0 0 0 1 13 23 2 0 0 0 0 0 0 9 16 14 16 33 159 ?85
 0 53 5 6 -0 0 85 0 23 81 1 159 359 153 16 161 0 0 165 162 14 85 30 165 ?150 16
 79 5 18 -0 0 150 16 23 81 1 165 360 153 85 163 0 159 154 164 50 18 121 0 85 157
 6 0 +0 .00999997914733891 0 0 -1 0 0 0 -1 50 157 119 0 150 155 18 0 +0 0 0 1 0
 0 0 0 -1 80 7 CCCCCDI12 legal_owners0 17 1 lCZ1 153 0 167 8001 0 0 0 0 3 5 0 0
 0 FFFFTFTFFFFFFFFFF2 81 1 163 354 34 85 170 165 169 161 166 81 1 154 361 153 15
0 169 0 165 151 168 83 255 3 164 .2666666666666665 .2666666666666665 .2666666666
666665 81 1 169 353 34 150 171 154 152 163 172 83 3 168 .2666666666666665 .26666
66666666665 .2666666666666665 80 1 34 174 173 9000 0 0 0 0 3 6 0 0 0 FFTFTFTTFFF
FFFFFF1 81 1 171 296 175 150 0 169 170 176 180 81 1 152 352 34 147 176 151 178 1
69 177 82 255 3 172 6 3 2 81 1 176 297 175 147 0 152 171 179 185 81 1 178 351 34
 86 179 156 181 152 183 82 3 177 6 2 2 81 1 179 298 175 86 0 178 176 182 184 81
 1 156 363 153 86 178 0 151 186 190 81 1 181 350 34 149 182 186 24 178 187 82 3
 183 6 1 2 14 149 3 186 ?0 86 146 5 188 +0 0 0 86 23 81 1 182 299 175 149 0 181
 179 189 191 81 1 186 364 153 149 181 0 156 0 195 81 1 24 349 34 10 193 0 125 18
1 192 82 3 187 6 0 2 81 1 193 282 175 10 0 24 49 194 199 81 1 125 348 34 27 194
 0 111 24 200 82 3 192 6 11 1 81 1 194 283 175 27 0 125 193 197 198 81 1 111 347
 34 70 197 0 135 125 196 82 3 200 6 10 1 81 1 197 284 175 70 0 111 194 203 205 8
1 1 135 346 34 92 203 0 94 111 201 82 3 196 6 9 1 81 1 203 285 175 92 0 135 197
 204 202 81 1 94 345 34 83 204 0 136 135 206 82 3 201 6 8 1 81 1 204 286 175 83
 0 94 203 210 208 81 1 136 344 34 91 210 0 103 94 207 82 3 206 6 7 1 81 1 210 28
7 175 91 0 136 204 209 211 81 1 103 343 34 98 209 0 100 136 215 82 3 207 6 6 1 8
1 1 209 288 175 98 0 103 210 101 213 82 3 215 6 5 1 80 1 175 212 214 9000 0 0 0
 0 3 5 0 0 0 FFTFTFTTFFFFFFFFF2 81 1 101 289 175 95 0 100 209 216 220 83 1 213 1
4 81 1 216 290 175 97 0 105 101 143 217 83 1 220 15 81 1 105 341 34 97 216 0 139
 100 218 81 1 143 291 175 106 0 139 216 219 222 83 1 217 16 81 1 219 292 175 89
 0 128 143 225 224 83 1 222 17 81 1 128 339 34 89 219 0 33 139 221 81 1 225 293
 175 117 0 33 219 223 226 83 1 224 18 81 1 33 338 34 117 225 0 30 128 227 81 1 2
23 294 175 16 0 161 225 170 229 83 1 226 19 81 1 161 355 34 16 223 159 163 0 228
 81 1 170 295 175 85 0 163 223 171 230 83 1 229 20 83 1 230 21 82 3 228 6 5 2 82
 3 227 6 0 1 82 3 221 6 1 1 82 3 218 6 3 1 79 255 13 214 BTI/importTag83 1 211 1
3 83 1 208 12 83 1 202 11 83 1 205 10 83 1 198 9 81 1 49 281 175 46 0 50 58 193
 231 83 1 199 8 81 1 58 280 175 47 0 55 235 49 233 83 1 231 7 81 1 235 279 175 4
4 0 61 232 58 234 83 1 233 6 81 1 61 332 34 44 235 0 55 71 240 81 1 232 278 175
 67 0 71 77 235 236 83 1 234 5 81 1 71 333 34 67 232 0 61 76 238 81 1 77 277 175
 21 0 76 74 232 237 83 1 236 4 81 1 74 276 175 45 0 72 239 77 241 83 1 237 3 81
 1 239 275 175 26 0 32 35 74 245 83 1 241 2 81 1 32 336 34 26 239 0 72 30 242 81
 1 35 274 175 11 0 30 0 239 243 83 1 245 1 83 1 243 0 82 3 242 6 6 0 82 3 238 6
 3 0 82 3 240 6 2 0 83 3 195 .2666666666666665 .2666666666666665 .26666666666666
65 81 1 189 300 175 1 244 246 182 0 250 83 1 191 25 81 1 244 206 248 1 0 189 0 0
 247 81 1 246 301 249 1 189 51 0 0 254 83 1 250 26 80 1 249 175 255 9000 0 0 0 0
 3 5 0 0 0 FFTFTFTTFFFFFFFFF2 81 1 51 303 34 1 246 252 0 50 253 83 1 254 53 81 1
 252 356 251 1 51 13 0 0 258 82 3 253 4 0 3 80 1 251 260 256 8038 0 0 0 0 0 0 0
 0 0 TTTTTTTTTTTTTFTFT10 81 1 13 357 260 1 252 2 0 0 259 98 255 5 258 86 84 82 8
8 95 80 1 260 257 261 8017 0 0 0 0 0 0 0 0 0 TTTTTTTTTTTTTFTFT3 84 255 5 259 VTR
X_79 13 261 SDL/TYSA_NAME79 14 256 SDL/TYSA_UNAME79 18 255 BTI/importMaxCount80
 1 248 265 263 9000 0 0 0 0 3 5 0 0 0 TTTFFFFFFFFFFFFFF1 82 1 247 14335 79 23 26
3 ONSHAPE_ORIGINALBODY_ID50 188 98 0 149 0 158 0 +.0109999859375 .00499998957366
943 .002011426 0 0 1 1 0 0 50 158 107 0 86 188 155 0 +.0109999859375 .0049999895
7366943 0 0 0 1 1 0 0 83 3 190 .2666666666666665 .2666666666666665 .266666666666
6665 83 1 184 24 83 1 185 23 83 1 180 22 79 9 173 BTI/DetId82 3 166 6 4 2 79 15
 167 SDL/TYSA_COLOUR83 3 162 .2666666666666665 .2666666666666665 .26666666666666
65 83 3 160 .2666666666666665 .2666666666666665 .2666666666666665 82 3 141 6 2 1
 82 3 102 6 4 1 17 39 0 79 60 37 44 29 27 0 36 -82 3 78 6 4 0 82 3 80 6 5 0 82 3
 62 6 1 0 82 3 52 6 0 0 82 3 31 6 7 0 19 17 35 0 1 0 9 5 0 S0 141 20 19 20 20 7
 74 4 CI16 index_map_offset0 0 1 dCCZ20 15 8 0 0 244 189 246 161 252 13 2 186 0
 0 0 0 0 0 0 0 0 0 0 0 80 1 12 153 262 8040 0 0 0 0 3 5 0 0 0 TTTFFFFFFFFFFFFFF2
 83 3 14 .2666666666666665 .2666666666666665 .2666666666666665 79 17 262 SDL/TYS
A_COLOUR_21 0 
